<svg width="16" height="16" viewBox="0 0 16 16" fill="none" xmlns="http://www.w3.org/2000/svg">
  <path d="M15.996 3.037c-.588.26-1.218.436-1.878.515a3.29 3.29 0 001.444-1.816c-.63.39-1.33.674-2.075.826a3.276 3.276 0 00-5.584 2.986A9.294 9.294 0 011.11 1.605a3.277 3.277 0 001.014 4.37 3.25 3.25 0 01-1.485-.41v.041a3.277 3.277 0 002.63 3.209 3.284 3.284 0 01-1.482.056 3.28 3.28 0 003.06 2.276 6.57 6.57 0 01-4.076 1.405A6.62 6.62 0 010 13.59a9.274 9.274 0 005.034 1.475c6.037 0 9.341-5.002 9.341-9.342 0-.142-.003-.284-.01-.424a6.673 6.673 0 001.63-1.699l-.001-.001z" fill="white"/>
</svg>
